# xmcd
# 
# Track frame offsets:
#     150
#     10710
#     30686
#     43296
#     60748
#     74406
#     93238
#     104985
#     121008
#     150893
#     163131
#     172348
#     184780
# 
# Disc length: 2802
# 
# Revision: 9
# Processed by: cddbd v1.5.2PL0 Copyright (c) Steve Scherf et al.
# Submitted via: fre:ac v1.0.27
# 
DISCID=af0af00d
DTITLE=John Sinclair - 17 - Bills Hinrichtung (2v3)
DYEAR=2002
DGENRE=Hörspiel
TTITLE0=Ja hallo
TTITLE1=Verdammt
TTITLE2=Der letzte
TTITLE3=Dienstag 22.10h
TTITLE4=Irgendwo
TTITLE5=Dienstag 22.53h
TTITLE6=Sinclair
TTITLE7=Nachdem
TTITLE8=Wir ließen
TTITLE9=Bill Conolly
TTITLE10=Mittwoch 10h später
TTITLE11=Was ist
TTITLE12=Wir kletterten
EXTD=YEAR: 2002
EXTT0=
EXTT1=
EXTT2=
EXTT3=
EXTT4=
EXTT5=
EXTT6=
EXTT7=
EXTT8=
EXTT9=
EXTT10=
EXTT11=
EXTT12=
PLAYORDER=
